<?xml version="1.0" standalone="yes"?>
<svg width="200" height="100" preserveAspectRatio="none" viewBox="0 0 40 20" xmlns="http://www.w3.org/2000/svg">
  <rect width="100%" height="100%" fill="white"/>
  <polyline fill="black" points="0,1 40,1 40,1 0,1 0,2 40,2 40,2 0,2 0,3 2,3 2,2 3,2 3,3 4,3 4,2 5,2 5,3 6,3 6,2 7,2 7,3 8,3 8,2 9,2 9,3 10,3 10,2 11,2 11,3 12,3 12,2 13,2 13,3 14,3 14,2 15,2 15,3 16,3 16,2 17,2 17,3 18,3 18,2 19,2 19,3 20,3 20,2 21,2 21,3 22,3 22,2 23,2 23,3 24,3 24,2 25,2 25,3 26,3 26,2 27,2 27,3 28,3 28,2 29,2 29,3 30,3 30,2 31,2 31,3 32,3 32,2 33,2 33,3 34,3 34,2 35,2 35,3 36,3 36,2 37,2 37,3 40,3 40,3 0,3 0,4 2,4 2,3 3,3 3,4 6,4 6,3 10,3 10,4 12,4 12,3 13,3 13,4 18,4 18,3 21,3 21,4 22,4 22,3 25,3 25,4 27,4 27,3 28,3 28,4 29,4 29,3 30,3 30,4 31,4 31,3 36,3 36,4 37,4 37,3 38,3 38,4 40,4 40,4 0,4 0,5 2,5 2,4 5,4 5,5 7,5 7,4 8,4 8,5 9,5 9,4 11,4 11,5 13,5 13,4 14,4 14,5 18,5 18,4 19,4 19,5 20,5 20,4 22,4 22,5 23,5 23,4 24,4 24,5 26,5 26,4 28,4 28,5 29,5 29,4 30,4 30,5 33,5 33,4 34,4 34,5 35,5 35,4 36,4 36,5 40,5 40,5 0,5 0,6 2,6 2,5 3,5 3,6 4,6 4,5 5,5 5,6 14,6 14,5 21,5 21,6 24,6 24,5 25,5 25,6 26,6 26,5 27,5 27,6 28,6 28,5 29,5 29,6 30,6 30,5 33,5 33,6 34,6 34,5 35,5 35,6 36,6 36,5 38,5 38,6 40,6 40,6 0,6 0,7 2,7 2,6 3,6 3,7 6,7 6,6 7,6 7,7 9,7 9,6 11,6 11,7 13,7 13,6 14,6 14,7 16,7 16,6 17,6 17,7 18,7 18,6 19,6 19,7 20,7 20,6 21,6 21,7 22,7 22,6 25,6 25,7 26,7 26,6 29,6 29,7 30,7 30,6 31,6 31,7 32,7 32,6 35,6 35,7 40,7 40,7 0,7 0,8 2,8 2,7 3,7 3,8 4,8 4,7 6,7 6,8 8,8 8,7 12,7 12,8 14,8 14,7 15,7 15,8 19,8 19,7 22,7 22,8 28,8 28,7 29,7 29,8 33,8 33,7 34,7 34,8 36,8 36,7 38,7 38,8 40,8 40,8 0,8 0,9 2,9 2,8 5,8 5,9 13,9 13,8 14,8 14,9 15,9 15,8 19,8 19,9 20,9 20,8 21,8 21,9 23,9 23,8 25,8 25,9 28,9 28,8 29,8 29,9 30,9 30,8 31,8 31,9 34,9 34,8 36,8 36,9 40,9 40,9 0,9 0,10 2,10 2,9 3,9 3,10 7,10 7,9 14,9 14,10 16,10 16,9 18,9 18,10 19,10 19,9 24,9 24,10 27,10 27,9 29,9 29,10 30,10 30,9 33,9 33,10 34,10 34,9 35,9 35,10 37,10 37,9 38,9 38,10 40,10 40,10 0,10 0,11 2,11 2,10 3,10 3,11 4,11 4,10 7,10 7,11 9,11 9,10 10,10 10,11 11,11 11,10 12,10 12,11 17,11 17,10 19,10 19,11 20,11 20,10 21,10 21,11 24,11 24,10 25,10 25,11 26,11 26,10 27,10 27,11 28,11 28,10 31,10 31,11 32,11 32,10 33,10 33,11 34,11 34,10 35,10 35,11 36,11 36,10 37,10 37,11 40,11 40,11 0,11 0,12 2,12 2,11 3,11 3,12 4,12 4,11 7,11 7,12 10,12 10,11 11,11 11,12 15,12 15,11 17,11 17,12 19,12 19,11 21,11 21,12 22,12 22,11 24,11 24,12 26,12 26,11 32,11 32,12 33,12 33,11 34,11 34,12 35,12 35,11 36,11 36,12 37,12 37,11 38,11 38,12 40,12 40,12 0,12 0,13 2,13 2,12 3,12 3,13 9,13 9,12 13,12 13,13 14,13 14,12 15,12 15,13 16,13 16,12 19,12 19,13 20,13 20,12 22,12 22,13 23,13 23,12 25,12 25,13 27,13 27,12 28,12 28,13 30,13 30,12 31,12 31,13 32,13 32,12 34,12 34,13 40,13 40,13 0,13 0,14 2,14 2,13 5,13 5,14 6,14 6,13 8,13 8,14 10,14 10,13 11,13 11,14 12,14 12,13 21,13 21,14 22,14 22,13 24,13 24,14 26,14 26,13 27,13 27,14 29,14 29,13 30,13 30,14 31,14 31,13 33,13 33,14 37,14 37,13 38,13 38,14 40,14 40,14 0,14 0,15 2,15 2,14 3,14 3,15 5,15 5,14 6,14 6,15 8,15 8,14 9,14 9,15 11,15 11,14 12,14 12,15 13,15 13,14 14,14 14,15 16,15 16,14 18,14 18,15 20,15 20,14 21,14 21,15 23,15 23,14 26,14 26,15 30,15 30,14 32,14 32,15 35,15 35,14 37,14 37,15 40,15 40,15 0,15 0,16 2,16 2,15 4,15 4,16 6,16 6,15 7,15 7,16 8,16 8,15 10,15 10,16 11,16 11,15 15,15 15,16 17,16 17,15 18,15 18,16 19,16 19,15 21,15 21,16 22,16 22,15 23,15 23,16 25,16 25,15 28,15 28,16 29,16 29,15 31,15 31,16 34,16 34,15 36,15 36,16 37,16 37,15 38,15 38,16 40,16 40,16 0,16 0,17 2,17 2,16 3,16 3,17 4,17 4,16 5,16 5,17 15,17 15,16 18,16 18,17 20,17 20,16 24,16 24,17 25,17 25,16 29,16 29,17 31,17 31,16 33,16 33,17 34,17 34,16 35,16 35,17 40,17 40,17 0,17 0,18 2,18 2,17 38,17 38,18 40,18 40,18 0,18 0,19 40,19 40,19 0,19 0,20 40,20 40,20 0,20"/>
</svg>
