<?xml version="1.0" standalone="yes"?>
<svg width="200" height="200.0" preserveAspectRatio="none" viewBox="0 0 18 18" xmlns="http://www.w3.org/2000/svg">
  <rect width="100%" height="100%" fill="#ffff00"/>
  <g transform="translate(0 0.5)" stroke="black" stroke-width="1">
    <line x1="0" y1="0" x2="18" y2="0" stroke-dasharray="0 18"/>
<line x1="0" y1="1" x2="18" y2="1" stroke-dasharray="0 18"/>
<line x1="0" y1="2" x2="18" y2="2" stroke-dasharray="0 18"/>
<line x1="0" y1="3" x2="18" y2="3" stroke-dasharray="0 18"/>
<line x1="0" y1="4" x2="18" y2="4" stroke-dasharray="0 4 1 1 1 1 1 1 1 1 1 5"/>
<line x1="0" y1="5" x2="18" y2="5" stroke-dasharray="0 4 2 2 1 1 2 1 1 4"/>
<line x1="0" y1="6" x2="18" y2="6" stroke-dasharray="0 4 2 5 1 6"/>
<line x1="0" y1="7" x2="18" y2="7" stroke-dasharray="0 4 2 3 3 1 1 4"/>
<line x1="0" y1="8" x2="18" y2="8" stroke-dasharray="0 4 2 4 1 7"/>
<line x1="0" y1="9" x2="18" y2="9" stroke-dasharray="0 4 1 5 4 4"/>
<line x1="0" y1="10" x2="18" y2="10" stroke-dasharray="0 4 3 1 2 8"/>
<line x1="0" y1="11" x2="18" y2="11" stroke-dasharray="0 4 4 1 2 2 1 4"/>
<line x1="0" y1="12" x2="18" y2="12" stroke-dasharray="0 4 1 2 3 1 1 6"/>
<line x1="0" y1="13" x2="18" y2="13" stroke-dasharray="0 4 10 4"/>
<line x1="0" y1="14" x2="18" y2="14" stroke-dasharray="0 18"/>
<line x1="0" y1="15" x2="18" y2="15" stroke-dasharray="0 18"/>
<line x1="0" y1="16" x2="18" y2="16" stroke-dasharray="0 18"/>
<line x1="0" y1="17" x2="18" y2="17" stroke-dasharray="0 18"/>
  </g>
</svg>
